<svg class="bikemap-logo" xmlns="http://www.w3.org/2000/svg" viewBox="0 0 372.4 60.5"><title>Bikemap</title><path class="bikemap-logo-text" fill="#fff" d="M152.9 13.6h-4.2c-2.4-.2-4.5 1.7-4.6 4.1V47.9h8.9v-4.8l-.1-29.5zm-31.2-.4c-4.1 0-8 1.9-10.4 5.2V.8H107c-2.4-.2-4.5 1.7-4.6 4.1V48h8.9v-4.8c2.5 3.3 6.3 5.2 10.4 5.2 8.5 0 15.1-6.3 14.9-17.4-.1-11.1-6.4-17.8-14.9-17.8zM119 40.6c-2.9-.1-5.7-1.5-7.5-3.8V24.9c1.8-2.4 4.6-3.8 7.5-3.8 5.2 0 8.7 3.8 8.7 9.8s-3.5 9.7-8.7 9.7zM148.7 0c-2.8 0-5.1 2.3-5.2 5.2 0 2.9 2.3 5.2 5.2 5.3 2.9 0 5.2-2.3 5.3-5.2-.1-2.9-2.4-5.3-5.3-5.3zm165.8 13c-3.9 0-11.4 1.5-13.5 4.8-.4.5-.6 1.1-.6 1.7 0 .7.2 1.4.6 2l1.6 2.6 2.9-1.8c2.2-1.4 4.7-2.1 7.3-2 4.4 0 7.3 2.1 7.3 5.6v4.6c-2.1-2.5-6.2-4-10.6-4-5.4 0-11.8 2.9-11.8 10.7 0 7.5 6.4 11.1 11.8 11.1 4.2 0 8.3-1.5 10.6-4.2v3.8h9.1V25.6c-.1-9.5-7-12.6-14.7-12.6zm5.7 26.4c-1.5 1.9-4.2 2.9-7.1 2.9-3.5 0-6.4-1.9-6.4-5 0-3.2 2.9-5 6.4-5 2.9 0 5.6 1 7.1 2.9v4.2zm-30.1-16c0-6.9-3.7-10.1-9.9-10.1-4.6 0-9 2.3-11.6 6.1-1.2-3.8-4.2-6.1-9.3-6.1-4.2.1-8.2 2-11 5.2v-4.8h-4.5c-2.4 0-4.3 1.8-4.4 4.2V48h8.9V24.7c1.4-1.9 3.9-4 7-4 3.7 0 5 2.3 5 5.4v21.8h9.1V24.7c1.6-2.3 4.2-3.7 7-3.8 3.7 0 5 2.3 5 5.4v21.6h8.7V23.4zm-94.3-9.8h-11.2l-13.2 15.1V.8h-4.2c-2.4-.1-4.5 1.7-4.6 4.1v43h8.9v-9.2l4.1-4.2 9.6 13.4h10.9l-14-18.8 13.7-15.5zm161.7-.4c-4.1-.1-7.9 1.8-10.4 5v-4.7h-4.2c-2.4-.2-4.5 1.7-4.6 4.1V60.4h8.9V43.1c2.5 3.3 6.3 5.2 10.4 5.2 8.5 0 14.9-6.5 14.9-17.4-.1-11.4-6.3-17.7-15-17.7zm-2.9 27.4c-2.9-.1-5.7-1.5-7.5-3.8V24.9c1.8-2.4 4.6-3.8 7.5-3.8 5.2 0 8.5 3.8 8.5 9.8.1 5.7-3.4 9.7-8.5 9.7zM215.4 13c-10.2 0-17.4 7.9-17.4 17.6 0 10.7 7.7 17.6 18 17.6 3.4 0 6.9-.7 10.1-2l4.1-1.9-1.3-2.9c-.7-1.4-2.1-2.2-3.6-2.2-.6 0-1.2.1-1.7.4-2 1.1-4.3 1.6-6.6 1.7-5.6 0-9.1-3.6-9.7-7.8h20.9c2.3 0 4.1-1.9 4.1-4.1v-.1c0-1.7-.4-3.4-1-5-2.6-6.9-8.4-11.3-15.9-11.3zm-8.3 14.5c.4-3.5 2.7-7.5 8.3-7.5 6 0 8.1 4.2 8.3 7.5h-16.6z"></path><path fill="#fff"  class="bikemap-logo-bike" d="M65.6 16.2c-1.7 0-3.3.3-4.9.8l-3.8-9.4V3.5h5.8c.3 0 .6.2.6.6 0 .3-.2.6-.6.6-.6 0-1.2.5-1.2 1.2s.5 1.2 1.2 1.2c1.6 0 2.9-1.3 2.9-2.9 0-1.5-1.2-2.7-2.6-2.9h-7.2c-.6 0-1.1.5-1.2 1.1v4.4H27.1l-1.2-2.9h5.4c.8-.1 1.4-.8 1.3-1.6-.1-.7-.6-1.3-1.3-1.3H20.7c-.8.1-1.4.8-1.3 1.6.1.7.6 1.3 1.3 1.3h2.6L25 8l-3.8 9.2C12.7 14.4 3.6 19 .8 27.5S2.6 45 11.1 47.8 28.8 46 31.5 37.5c.4-1.3.7-2.6.8-3.9H37.2l.1-.1h.1v-.1l17.9-23 3.1 7.7c-8 3.9-11.4 13.6-7.5 21.6S64.4 51 72.5 47.1 83.9 33.6 80 25.5c-2.7-5.6-8.4-9.1-14.6-9.1l.2-.2zM53.4 9L36.9 30.1 28.1 9h25.3zm-27 1.9l8.5 20.4h-2.6c-.4-5.7-3.8-10.8-8.9-13.3l3-7.1zm2.4 20.3h-11l4.2-10c3.8 2 6.4 5.8 6.8 10zM16.2 45.1c-7 0-12.7-5.7-12.7-12.7s5.7-12.7 12.7-12.7c1.3 0 2.5.2 3.7.5L15 32c-.1.1-.1.2-.1.4v.4l.1.2v.1l.1.1.1.1.1.1.1.1.2.1.2.1h13.1c-.7 6.4-6.2 11.4-12.7 11.4zm49.4 0c-7 .1-12.7-5.6-12.8-12.5 0-4.8 2.7-9.3 7-11.5l4.7 11.7c.1.6.8 1 1.4.9s1-.8.9-1.4c0-.1-.1-.2-.1-.3L62 20.3c6.7-2 13.8 1.8 15.7 8.6s-1.8 13.8-8.6 15.7c-1.1.3-2.3.5-3.5.5z"></path></svg>