<?xml version="1.0" encoding="UTF-8"?>
<svg width="175px" height="34px" viewBox="0 0 175 34" version="1.1" xmlns="http://www.w3.org/2000/svg" xmlns:xlink="http://www.w3.org/1999/xlink">
    <title>classpass</title>
    <g id="Page-1" stroke="none" stroke-width="1" fill="none" fill-rule="evenodd">
        <g id="classpass" fill="#FFFFFF" fill-rule="nonzero">
            <path d="M9.385,23.498 C5.8568,23.498 3.8104,20.746 3.8104,17.6411 C3.8104,14.0423 6.1391,11.6431 9.385,11.6431 C11.0786,11.6431 12.2076,12.3488 13.2661,12.9839 L14.9596,9.9496 C13.76,9.1734 11.7137,8.256 9.5967,8.256 C4.0221,8.256 0,12.2077 0,17.6411 C0,23.004 4.0927,27.0262 9.5967,27.0262 C11.9254,27.0262 13.6189,26.0383 14.9596,25.2621 L13.2661,22.2278 C12.2076,22.9335 10.6552,23.498 9.385,23.498 Z M21.3104,3.55271368e-15 L24.9092,3.55271368e-15 L24.9092,26.5323 L21.3104,26.5323 L21.3104,3.55271368e-15 Z M45.6552,8.8206 L45.2318,10.373 C44.2439,9.3145 42.1975,8.256 40.01,8.256 C35.5645,8.256 31.4717,11.7843 31.4717,17.5 C31.4717,23.4274 35.5645,27.0262 40.01,27.0262 C42.1975,27.0262 44.1733,25.9677 45.2318,24.9093 L45.6552,26.5323 L48.6895,26.5323 L48.6895,8.8911 L45.6552,8.8911 L45.6552,8.8206 Z M45.3024,17.7823 C45.3024,21.8044 42.8326,23.6391 40.504,23.6391 C38.1048,23.6391 35.3528,22.0161 35.3528,17.5706 C35.3528,14.748 36.8346,11.7137 40.2217,11.7137 C42.7621,11.7137 45.3024,13.7601 45.3024,17.5706 L45.3024,17.7823 Z M61.5322,19.1935 C64.002,19.8286 65.0604,20.3226 65.0604,21.5927 C65.0604,22.5806 64.2137,23.5685 62.2379,23.5685 C60.4032,23.5685 58.9213,22.9335 57.51,22.1573 L55.887,25.1915 C57.1572,25.9677 59.9092,27.0262 62.2379,27.0262 C66.1895,27.0262 68.5181,24.3448 68.5181,21.6633 C68.5181,17.006 63.9314,16.3004 62.7318,15.877 C60.1915,15.1714 59.5564,14.6774 59.5564,13.6189 C59.5564,12.4899 60.5443,11.7137 62.379,11.7137 C64.002,11.7137 65.2016,12.2077 66.3306,12.7722 L68.0241,9.7379 C66.4012,9.0323 64.4959,8.3266 62.379,8.3266 C58.4979,8.3266 56.1693,11.0786 56.1693,13.6189 C56.0987,17.6411 59.5564,18.6996 61.5322,19.1935 Z M80.7963,19.1935 C83.2663,19.8286 84.3243,20.3226 84.3243,21.5927 C84.3243,22.5806 83.4773,23.5685 81.5023,23.5685 C79.6673,23.5685 78.1853,22.9335 76.7741,22.1573 L75.1512,25.1915 C76.4213,25.9677 79.1733,27.0262 81.5023,27.0262 C85.4533,27.0262 87.7823,24.3448 87.7823,21.6633 C87.7823,17.006 83.1953,16.3004 81.9963,15.877 C79.4553,15.1714 78.8203,14.6774 78.8203,13.6189 C78.8203,12.4899 79.8083,11.7137 81.6433,11.7137 C83.2663,11.7137 84.4653,12.2077 85.5943,12.7722 L87.2883,9.7379 C85.6653,9.0323 83.7603,8.3266 81.6433,8.3266 C77.7623,8.3266 75.4334,11.0786 75.4334,13.6189 C75.3629,17.6411 78.8203,18.6996 80.7963,19.1935 Z M103.3773,8.256 C101.1893,8.256 99.2133,9.3145 98.1553,10.373 L97.7323,8.75 L94.6973,8.75 L94.6973,33.871 L98.0843,33.871 L98.0843,25.121 L98.2253,25.0504 C99.2133,26.1089 101.1893,26.9556 103.0943,26.9556 C107.6813,26.9556 111.9153,23.9919 111.9153,17.4294 C111.9863,11.502 107.8933,8.256 103.3773,8.256 Z M102.9533,23.6391 C100.6253,23.6391 98.1553,21.8044 98.1553,17.7823 L98.1553,17.5706 C98.1553,13.6895 100.6953,11.7137 103.2363,11.7137 C106.6233,11.7137 108.1043,14.748 108.1043,17.5706 C108.1043,22.0161 105.3523,23.6391 102.9533,23.6391 Z M132.0263,8.8206 L131.6023,10.4435 C130.6153,9.3851 128.5683,8.3266 126.3813,8.3266 C121.9353,8.3266 117.8423,11.8548 117.8423,17.5706 C117.8423,23.498 121.9353,27.0968 126.3813,27.0968 C128.5683,27.0968 130.5443,26.0383 131.6023,24.9798 L132.0263,26.6028 L135.0603,26.6028 L135.0603,8.9617 L132.0263,8.9617 L132.0263,8.8206 Z M131.6733,17.7823 C131.6733,21.8044 129.2033,23.6391 126.8753,23.6391 C124.4753,23.6391 121.7233,22.0161 121.7233,17.5706 C121.7233,14.748 123.2053,11.7137 126.5923,11.7137 C129.1333,11.7137 131.6733,13.7601 131.6733,17.5706 L131.6733,17.7823 Z M147.9033,19.1935 C150.3733,19.8286 151.4313,20.3226 151.4313,21.5927 C151.4313,22.5806 150.5843,23.5685 148.6093,23.5685 C146.7743,23.5685 145.2923,22.9335 143.8813,22.1573 L142.2583,25.1915 C143.5283,25.9677 146.2803,27.0262 148.6093,27.0262 C152.5603,27.0262 154.8893,24.3448 154.8893,21.6633 C154.8893,17.006 150.3023,16.3004 149.1023,15.877 C146.5623,15.1714 145.9273,14.6774 145.9273,13.6189 C145.9273,12.4899 146.9153,11.7137 148.7503,11.7137 C150.3733,11.7137 151.5723,12.2077 152.7013,12.7722 L154.3953,9.7379 C152.7723,9.0323 150.8673,8.3266 148.7503,8.3266 C144.8693,8.3266 142.5403,11.0786 142.5403,13.6189 C142.4693,17.6411 145.9273,18.6996 147.9033,19.1935 Z M167.1673,19.1935 C169.6373,19.8286 170.6953,20.3226 170.6953,21.5927 C170.6953,22.5806 169.8483,23.5685 167.8733,23.5685 C166.0383,23.5685 164.5563,22.9335 163.1453,22.1573 L161.5223,25.1915 C162.7923,25.9677 165.5443,27.0262 167.8733,27.0262 C171.8243,27.0262 174.1533,24.3448 174.1533,21.6633 C174.1533,17.006 169.5663,16.3004 168.3673,15.877 C165.8263,15.1714 165.1913,14.6774 165.1913,13.6189 C165.1913,12.4899 166.1793,11.7137 168.0143,11.7137 C169.6373,11.7137 170.8363,12.2077 171.9653,12.7722 L173.6593,9.7379 C172.0363,9.0323 170.1313,8.3266 168.0143,8.3266 C164.1333,8.3266 161.8043,11.0786 161.8043,13.6189 C161.7343,17.6411 165.1913,18.6996 167.1673,19.1935 Z" id="Shape"></path>
        </g>
    </g>
</svg>