<?xml version="1.0" encoding="UTF-8"?>
<svg width="300px" height="35px" viewBox="0 0 300 35" version="1.1" xmlns="http://www.w3.org/2000/svg" xmlns:xlink="http://www.w3.org/1999/xlink">
    <title>doordash</title>
    <g id="Page-1" stroke="none" stroke-width="1" fill="none" fill-rule="evenodd">
        <g id="doordash" transform="translate(0.003337, -0.000091)" fill="#FFFFFF" fill-rule="nonzero">
            <path d="M87.0226287,9.88480454 L87.0226287,25.2065601 L90.8428401,25.2065601 C92.8125284,25.1773122 94.6865823,24.3523631 96.0384055,22.9194983 C97.4117638,21.4655321 98.1631804,19.5328187 98.1326061,17.5330197 C98.1914237,15.5268232 97.4482725,13.5799075 96.0676269,12.123164 C94.709596,10.6876927 92.8188946,9.87698927 90.8428401,9.88282482 L87.0245768,9.88282482 L87.0226287,9.88480454 Z M90.8428401,5.0808059 C97.9631219,5.0808059 103.349601,10.5978068 103.349601,17.5330197 C103.349601,24.4682327 97.9631219,30.0164031 90.8428401,30.0164031 L82.4173356,30.0164031 C82.2550981,30.0143495 82.1003227,29.9479247 81.987065,29.8317442 C81.8738073,29.7155637 81.8113467,29.5591465 81.8133763,29.3969093 L81.8133763,5.72562486 C81.8133763,5.3827604 82.0842116,5.10418302 82.4173356,5.10418302 L90.8428401,5.0808059 L90.8428401,5.0808059 Z M121.70259,25.7403734 C124.936425,25.7500782 127.856617,23.7610747 129.101449,20.7006198 C130.347251,17.6456985 129.676918,14.1436322 127.391023,11.7647148 C125.140596,9.42011157 121.677541,8.70580805 118.683045,9.96857256 C115.694669,11.2309372 113.74268,14.2173645 113.736835,17.5330197 C113.736835,22.0525967 117.29795,25.7189087 121.704538,25.7403734 M121.704538,4.51585878 C129.198854,4.51585878 134.928197,10.4224784 134.928197,17.5330197 C134.928197,24.6435611 129.198854,30.5501807 121.70259,30.5501807 C114.208274,30.5501807 108.527633,24.6727825 108.527633,17.5330197 C108.527633,10.393257 114.256976,4.51585878 121.70259,4.51585878 M153.133131,25.7403378 C157.541666,25.7286492 161.108626,22.058441 161.104733,17.538864 C161.098885,13.0153908 157.524133,9.35297501 153.117546,9.35102691 C148.707062,9.35102691 145.130362,13.0114947 145.124518,17.5330197 C145.124518,19.7109883 145.968043,21.7993446 147.470023,23.3383384 C148.955291,24.8706243 150.997193,25.7369921 153.131183,25.7403378 M153.131183,4.51585878 C160.602121,4.51585878 166.331464,10.393257 166.331464,17.5330197 C166.331464,24.6727825 160.578744,30.5501807 153.131183,30.5501807 C145.685569,30.5501807 139.907524,24.6727825 139.907524,17.5330197 C139.907524,10.393257 145.636867,4.51585878 153.131183,4.51585878 M183.805863,9.88480454 L178.419385,9.88480454 L178.419385,16.4791011 L183.805863,16.4791011 C184.666087,16.5172385 185.503765,16.1978209 186.120198,15.5966148 C186.743588,14.9927058 187.098141,14.1550256 187.105934,13.2744873 C187.137655,12.3718243 186.799969,11.4952481 186.170849,10.8471627 C185.552813,10.2088862 184.693847,9.86147898 183.805863,9.89064882 L183.805863,9.88480454 L183.805863,9.88480454 Z M173.208234,5.72562486 C173.208234,5.3827604 173.480968,5.10418302 173.814092,5.10418302 L183.955866,5.10418302 C188.791035,5.10418302 192.289811,8.73737745 192.289811,13.2998125 C192.326824,16.3855926 190.641723,19.2200687 187.951406,20.601267 L192.628779,29.0813182 C192.760737,29.2800652 192.769774,29.5361144 192.652156,29.74367 C192.537122,29.9482803 192.313339,30.0670225 192.079416,30.0475726 L187.974783,30.0475726 C187.742451,30.0508667 187.528833,29.9205751 187.425421,29.7125005 L182.917533,21.3201136 L178.399904,21.3201136 L178.399904,29.3774284 C178.402506,29.5400004 178.340277,29.6969195 178.226963,29.8135231 C178.113649,29.9301267 177.958575,29.9968198 177.795995,29.9988702 L173.841365,29.9988702 C173.678785,29.9968198 173.523711,29.9301267 173.410397,29.8135231 C173.297083,29.6969195 173.234854,29.5400004 173.237456,29.3774284 L173.210183,5.72757295 L173.208234,5.72562486 Z M205.871919,10.0016902 L205.871919,25.3253938 L209.690182,25.3253938 C211.659398,25.2987024 213.534081,24.4765963 214.887695,23.0461244 C216.261704,21.5938575 217.014504,19.6625806 216.985792,17.663542 C217.048795,15.6548348 216.307604,13.7040353 214.926657,12.2439458 C213.566306,10.8060017 211.671566,9.99507859 209.69213,10.0036382 L205.871919,10.0016902 L205.871919,10.0016902 Z M209.690182,5.19184723 C216.810464,5.19184723 222.196942,10.7146924 222.196942,17.663542 C222.196942,24.6123916 216.810464,30.1352368 209.690182,30.1352368 L201.290003,30.1352368 C201.127423,30.1331863 200.972348,30.0664933 200.859034,29.9498896 C200.745721,29.833286 200.683492,29.676367 200.686015,29.5137949 L200.686015,5.84445856 C200.686015,5.49964601 200.956879,5.22106864 201.290003,5.22106864 L209.69213,5.19184723 L209.690182,5.19184723 Z M238.085593,11.2854838 L235.130335,19.4791652 L241.035007,19.4791652 L238.085593,11.2854838 L238.085593,11.2854838 Z M233.396532,24.1097835 L231.462075,29.5644454 C231.382256,29.828447 231.133718,30.0048286 230.858166,29.9930259 L226.661973,29.9930259 C226.444304,30.0133117 226.232911,29.9132172 226.110662,29.7319814 C225.985967,29.5489027 225.96602,29.3139688 226.058064,29.1124877 L235.124491,5.46458033 C235.211403,5.20831299 235.458176,5.04114393 235.7284,5.05548069 L240.423305,5.05548069 C240.694233,5.04024469 240.942056,5.20758513 241.029163,5.46458033 L250.09559,29.1124877 C250.187063,29.3143037 250.166376,29.5492552 250.041043,29.7319814 C249.91832,29.9124776 249.707014,30.0117841 249.489733,29.9910778 L245.295487,29.9910778 C245.019936,30.0028805 244.771398,29.8264989 244.691578,29.5624973 L242.757121,24.1078354 L233.396532,24.1078354 L233.396532,24.1097835 Z M254.959979,11.8173133 C254.959979,7.90164533 258.26005,4.51585878 263.4712,4.51585878 C266.277453,4.45319283 268.9946,5.50293607 271.029803,7.43605098 C271.155151,7.55454069 271.226177,7.7194173 271.226177,7.89190486 C271.226177,8.06439242 271.155151,8.22926904 271.029803,8.34775875 L268.705727,10.7146924 C268.59341,10.8308708 268.43874,10.8964737 268.277147,10.8964737 C268.115553,10.8964737 267.960883,10.8308708 267.848566,10.7146924 C266.753884,9.68867312 265.316181,9.10734137 263.816013,9.0841381 C261.731552,9.0841381 260.19061,10.3250737 260.19061,11.7569224 C260.19061,16.3855926 272.508406,13.7147564 272.508406,22.62144 C272.502562,27.1351727 269.177166,30.5501807 263.29782,30.5501807 C259.999153,30.5839664 256.827958,29.277808 254.50997,26.9306229 C254.384622,26.8121332 254.313596,26.6472566 254.313596,26.474769 C254.313596,26.3022815 254.384622,26.1374049 254.50997,26.0189151 L256.75807,23.7123724 C256.871234,23.5904653 257.030055,23.5211935 257.196391,23.5211935 C257.362726,23.5211935 257.521548,23.5904653 257.634712,23.7123724 C259.049667,25.1148466 260.955039,25.911372 262.947163,25.933199 C265.551764,25.933199 267.268034,24.5071946 267.268034,22.7207928 C267.268034,18.0901745 254.956083,20.7629588 254.956083,11.8543271 M294.845246,5.69445536 L294.845246,15.0530967 L284.41905,15.0530967 L284.41905,5.69445536 C284.42113,5.53221821 284.358669,5.37580099 284.245411,5.25962049 C284.132154,5.14343999 283.977378,5.07701517 283.815141,5.07496162 L279.860511,5.07496162 C279.698273,5.07701517 279.543498,5.14343999 279.43024,5.25962049 C279.316983,5.37580099 279.254522,5.53221821 279.256552,5.69445536 L279.256552,29.3384665 C279.256552,29.681331 279.529335,29.9599083 279.860511,29.9599083 L283.815141,29.9599083 C284.146317,29.9599083 284.41905,29.681331 284.41905,29.3384665 L284.41905,19.8317701 L294.837454,19.8317701 L294.837454,29.3384665 C294.837454,29.681331 295.110187,29.9599083 295.441363,29.9599083 L299.395993,29.9599083 C299.729117,29.9599083 299.999952,29.681331 299.999952,29.3384665 L299.999952,5.69445536 C300.001982,5.53221821 299.939521,5.37580099 299.826263,5.25962049 C299.713006,5.14343999 299.55823,5.07701517 299.395993,5.07496162 L295.441363,5.07496162 C295.10658,5.0834653 294.840872,5.35959312 294.845246,5.69445536 Z M59.6149008,8.23087314 C56.8719851,3.14634903 51.5049875,-0.0193029549 45.6684993,8.85820383e-05 L1.50911517,8.85820383e-05 C0.899465901,0.00265263064 0.350320822,0.369260658 0.114280207,0.931366687 C-0.118460646,1.49022929 0.0109913161,2.13440691 0.44155992,2.55997288 L10.0612458,12.1056312 C10.9106145,12.9511038 12.0677821,13.4244905 13.2717039,13.4244905 L44.4022385,13.4244905 C46.621117,13.4011134 48.4347921,15.1582937 48.4581692,17.3460028 C48.4815463,19.5337118 46.7029369,21.3259578 44.4840584,21.3473869 L23.021912,21.3473869 C22.4117843,21.3476374 21.8609742,21.7127985 21.6231808,22.2746794 C21.3881769,22.8342343 21.5169595,23.4804609 21.9485125,23.9071818 L31.5740426,33.4606324 C32.428738,34.3056764 33.582585,34.7789777 34.7845007,34.7775469 L44.4918508,34.7775469 C57.1213411,34.7775469 66.6708956,21.4525839 59.6149008,8.22502886" id="Shape"></path>
        </g>
    </g>
</svg>