<?xml version="1.0" encoding="UTF-8"?>
<svg width="324px" height="64px" viewBox="0 0 324 64" version="1.1" xmlns="http://www.w3.org/2000/svg" xmlns:xlink="http://www.w3.org/1999/xlink">
    <title>dropbox</title>
    <g id="Page-1" stroke="none" stroke-width="1" fill="none" fill-rule="evenodd">
        <g id="dropbox" transform="translate(-105.000000, 0.000000)" fill="#FFFFFF" fill-rule="nonzero">
            <path d="M142.6,12 L123.8,24 L142.6,36 L123.8,48 L105,35.9 L123.8,23.9 L105,12 L123.8,0 L142.6,12 Z M123.7,51.8 L142.5,39.8 L161.3,51.8 L142.5,63.8 L123.7,51.8 Z M142.6,35.9 L161.4,23.9 L142.6,12 L161.3,0 L180.1,12 L161.3,24 L180.1,36 L161.3,48 L142.6,35.9 Z" id="Shape"></path>
            <path d="M194.8,12 L210,12 C219.7,12 227.7,17.6 227.7,30.4 L227.7,33.1 C227.7,46 220.2,51.8 210.3,51.8 L194.8,51.8 L194.8,12 Z M203.3,19.2 L203.3,44.5 L209.8,44.5 C215.3,44.5 219,40.9 219,32.9 L219,30.8 C219,22.8 215.1,19.2 209.5,19.2 L203.3,19.2 Z M232.2,19.6 L239,19.6 L240.1,27.1 C241.4,22 244.7,19.3 250.7,19.3 L252.8,19.3 L252.8,27.9 L249.3,27.9 C242.4,27.9 240.7,30.3 240.7,37.1 L240.7,51.9 L232.3,51.9 L232.3,19.6 L232.2,19.6 Z M254.5,36.4 L254.5,35.5 C254.5,24.7 261.4,18.8 270.8,18.8 C280.4,18.8 287.1,24.7 287.1,35.5 L287.1,36.4 C287.1,47 280.6,52.7 270.8,52.7 C260.4,52.6 254.5,47 254.5,36.4 Z M278.5,36.3 L278.5,35.5 C278.5,29.5 275.5,25.9 270.7,25.9 C266,25.9 262.9,29.2 262.9,35.5 L262.9,36.3 C262.9,42.1 265.9,45.4 270.7,45.4 C275.5,45.3 278.5,42.1 278.5,36.3 Z M291.5,19.6 L298.5,19.6 L299.3,25.7 C301,21.6 304.6,18.8 309.9,18.8 C318.1,18.8 323.5,24.7 323.5,35.6 L323.5,36.5 C323.5,47.1 317.5,52.7 309.9,52.7 C304.8,52.7 301.3,50.4 299.6,46.7 L299.6,63 L291.4,63 L291.5,19.6 L291.5,19.6 Z M315,36.3 L315,35.6 C315,29.2 311.7,26 307.3,26 C302.6,26 299.5,29.6 299.5,35.6 L299.5,36.2 C299.5,41.9 302.5,45.5 307.2,45.5 C312,45.4 315,42.3 315,36.3 Z M335.9,45.9 L335.2,51.8 L328,51.8 L328,8.8 L336.2,8.8 L336.2,25.3 C338,21.1 341.6,18.8 346.7,18.8 C354.4,18.9 360.1,24.2 360.1,34.9 L360.1,35.9 C360.1,46.6 354.7,52.7 346.5,52.7 C341.1,52.6 337.6,50.1 335.9,45.9 Z M351.5,35.9 L351.5,35.1 C351.5,29.2 348.3,25.9 343.8,25.9 C339.2,25.9 336,29.6 336,35.2 L336,35.9 C336,41.9 339.1,45.4 343.7,45.4 C348.6,45.4 351.5,42.3 351.5,35.9 Z M363.7,36.4 L363.7,35.5 C363.7,24.7 370.6,18.8 380,18.8 C389.6,18.8 396.3,24.7 396.3,35.5 L396.3,36.4 C396.3,47 389.7,52.7 380,52.7 C369.6,52.6 363.7,47 363.7,36.4 Z M387.8,36.3 L387.8,35.5 C387.8,29.5 384.8,25.9 380,25.9 C375.3,25.9 372.2,29.2 372.2,35.5 L372.2,36.3 C372.2,42.1 375.2,45.4 380,45.4 C384.8,45.3 387.8,42.1 387.8,36.3 Z M407.3,35.1 L396,19.6 L405.7,19.6 L412.2,29.3 L418.8,19.6 L428.4,19.6 L416.9,35 L429,51.8 L419.5,51.8 L412.1,41.1 L404.9,51.8 L395,51.8 L407.3,35.1 Z" id="Shape"></path>
        </g>
    </g>
</svg>