<svg width="300px" height="35px" viewBox="0 0 106 30" fill="none" xmlns="http://www.w3.org/2000/svg" aria-label="FullStory Logo" role="img"><path fill-rule="evenodd" clip-rule="evenodd" d="M5.83 11.38h4.687V8.516H5.831V5.621c0-1.862.838-2.587 2.304-2.587 1.048 0 1.816.31 2.654.863V.759C9.916.24 8.973 0 7.751 0 4.504 0 2.41 1.862 2.41 5.655v2.862H0v2.862h2.41v12.414h3.42V11.38zm19.42-2.863h-3.42v12.586c-.908.138-1.886.207-2.654.207-2.27 0-3.666-.827-3.666-3.103v-9.69h-3.422v9.931c0 4.276 2.723 5.69 7.158 5.69 1.815 0 4.19-.241 6.005-.69V8.518zM32.036.345h-3.457v23.448h3.457V.345zm6.75 0h-3.457v23.448h3.457V.345zm2.595 22.552c1.153.758 2.968 1.24 4.784 1.24 3.352 0 5.83-1.447 5.83-4.654 0-2.759-1.535-4.07-5.062-4.828-1.78-.483-2.444-1-2.444-2s.803-1.724 2.304-1.724c1.641 0 2.968.586 4.33 1.552V9.345c-1.292-.793-2.689-1.173-4.434-1.173-3.143 0-5.517 1.518-5.517 4.621 0 2.655 1.362 3.931 4.574 4.655 1.99.517 2.898.966 2.898 2.207 0 1.207-1.013 1.724-2.549 1.724-1.571 0-3.282-.655-4.714-1.724v3.242zm10.801-11.518h2.34v8.035c0 3.483 2.13 4.724 4.643 4.724 1.467 0 2.724-.31 3.736-.828v-3.069c-.943.552-1.816.862-2.828.862-1.327 0-2.13-.62-2.13-2.448V11.38h4.4V8.517h-4.4V4.793h-3.422v3.724h-2.339v2.862zm11.29 4.793c0 4.725 3.351 7.966 7.96 7.966 4.644 0 7.996-3.241 7.996-7.966 0-4.758-3.352-8-7.996-8-4.609 0-7.96 3.242-7.96 8zm12.464 0c0 3.07-1.85 5.035-4.504 5.035-2.584 0-4.469-1.966-4.469-5.035 0-3.103 1.885-5.069 4.47-5.069 2.653 0 4.503 1.966 4.503 5.07zm9.09-4.207a6.886 6.886 0 012.584-.482c.559 0 1.643.158 1.643.158l-1.256-3.357s-.214-.008-.387-.008c-2.2 0-4.365.586-6.04 1.517v14h3.456V11.966zm8.566-3.448h-3.701l6.39 15.966L94.115 30h3.387l8.379-21.483h-3.561l-4.33 12.035-4.399-12.035z" fill="#fff"></path></svg>