<svg width="150" height="30" viewBox="0 0 500 100" fill="none" xmlns="http://www.w3.org/2000/svg">
<path d="M52.5598 0L45.9877 37.3083L26.6795 53.0563L36.0178 0H17.3076L0 97.8597H18.7159L23.522 70.7882L42.8917 54.9176L35.2522 97.8597H53.9681L71.2756 0H52.5598Z" fill="#fff"></path>
<path d="M96.8828 55.1484L88.7739 62.1392C82.7383 67.3105 79.5641 72.0639 78.8711 75.9814C78.2061 79.7596 79.4635 82.5515 82.8277 82.5515C87.0638 82.5515 90.6349 78.9182 93.3006 75.4186L96.8828 55.1484ZM89.6094 97.9318L93.0938 88.1463H91.339C88.1592 92.0638 82.1962 99.3305 73.5732 99.3305C63.9219 99.3305 59.7976 92.0638 61.5524 82.1335C63.4301 71.5067 69.4713 63.8221 81.3859 54.3097L99.5988 39.7709L99.9453 37.815C101.085 31.3842 99.772 28.0295 95.8266 28.0295C91.8811 28.0295 89.3886 31.3842 88.2486 37.815L86.6391 46.9038H68.3647L69.2812 41.7325C72.1481 25.5163 82.9954 15.4467 98.0508 15.4467C113.106 15.4467 120.394 25.5107 117.504 41.8718L107.59 97.9318H89.6094Z" fill="#fff"></path>
<path d="M113.764 97.929L128.102 16.8454H146.376L142.939 26.3522H144.694C150.489 19.2249 156.709 15.4467 163.292 15.4467C170.602 15.4467 177.336 21.1809 174.57 36.8342L163.767 97.9262H145.493L155.379 42.0055C156.346 36.5556 155.502 33.056 151.406 33.056C147.605 33.056 144.476 36.6893 142.375 39.4867L132.041 97.9262L113.764 97.929Z" fill="#fff"></path>
<path d="M212.59 37.6775C211.455 34.1835 209.262 31.6647 205.903 31.6647C201.661 31.6647 199.119 36.1395 198.057 42.1523L192.887 71.3692C191.826 77.382 192.787 81.8568 197.029 81.8568C200.393 81.8568 203.466 79.3436 205.842 75.844L212.59 37.6775ZM220.204 97.9308L201.93 97.9336L204.903 88.5662H203.148C197.967 94.7183 193.206 99.3323 186.042 99.3323C175.954 99.3323 170.545 88.5662 175.563 60.1907L176.552 54.5958C181.571 26.2148 190.199 15.4542 201.309 15.4542C207.306 15.4542 210.972 19.511 213.23 24.1251H214.984L219.237 0.0683263H237.512L220.204 97.9308Z" fill="#fff"></path>
<path d="M281.225 44.2564L262.95 44.2536L264.308 36.5635C265.225 31.3922 264.381 27.8982 260.139 27.8982C256.92 27.8982 254.724 30.417 254.277 32.9302C253.511 37.2656 255.624 40.1968 259.044 44.8165L269.075 58.3745C273.3 64.248 277.184 70.4001 275.552 79.6227C273.501 91.2248 262.414 99.3328 248.823 99.3328C235.231 99.3328 225.714 91.9213 228.436 76.5466L229.671 69.5586H247.945L246.386 78.3689C245.497 83.4009 247.191 87.0342 251.142 87.0342C254.797 87.0342 256.753 84.2368 257.272 81.3C257.988 77.2432 255.73 74.312 252.427 69.8373L242.547 56.2792C238.445 50.5451 234.946 44.6772 236.606 35.3097C238.311 25.6636 248.448 15.4602 262.632 15.4602C276.815 15.4602 284.662 24.8277 282.264 38.3857L281.225 44.2564Z" fill="#fff"></path>
<path d="M423.563 97.9337L412.302 61.5838H410.547L404.121 97.9337H385.846L403.148 0.0683263H421.428L412.8 48.8617H414.554L435.712 16.8473H455.306L430.325 54.7296L444.179 97.9337H423.563Z" fill="#fff"></path>
<path d="M465.913 51.0944H479.655L481.98 37.9543C482.991 32.2201 481.689 28.0295 476.866 28.0295C472.044 28.0295 469.255 32.2257 468.238 37.9543L465.913 51.0944ZM463.812 62.9806L461.364 76.8229C460.352 82.5571 461.655 86.7476 466.483 86.7476C471.311 86.7476 474.094 82.5515 475.112 76.8229L476.375 69.6956H495.968C493.028 86.3297 480.052 99.3305 464.264 99.3305C448.477 99.3305 440.094 88.007 445.04 60.0439L445.979 54.7333C450.925 26.7701 463.309 15.4467 479.096 15.4467C494.884 15.4467 503.557 26.7701 498.611 54.7333L497.153 62.9806H463.812Z" fill="#fff"></path>
<path d="M276.392 97.9281L293.699 0.0683263H311.974L307.598 24.8105H309.353C315.187 19.0763 320.513 15.443 327.09 15.443C334.4 15.443 339.966 21.1772 337.194 36.8305L326.392 97.9225H308.117L318.227 40.7425C319.194 35.2925 318.35 31.7929 314.254 31.7929C310.453 31.7929 307.324 35.4262 305.223 38.2237L294.666 97.9281H276.392Z" fill="#fff"></path>
<path d="M368.963 55.1484L360.855 62.1392C354.819 67.3105 351.639 72.0639 350.952 75.9814C350.287 79.7596 351.544 82.5515 354.908 82.5515C359.15 82.5515 362.715 78.9182 365.381 75.4186L368.963 55.1484ZM361.69 97.9318L365.174 88.1463H363.42C360.24 92.0638 354.277 99.3305 345.654 99.3305C336.003 99.3305 331.878 92.0638 333.633 82.1335C335.511 71.5067 341.552 63.8221 353.467 54.3097L371.679 39.7709L372.026 37.815C373.16 31.3842 371.853 28.0295 367.907 28.0295C363.962 28.0295 361.464 31.3842 360.329 37.815L358.72 46.9038H340.445L341.362 41.7325C344.229 25.5163 355.076 15.4467 370.131 15.4467C385.187 15.4467 392.474 25.5107 389.585 41.8718L379.671 97.9318H361.69Z" fill="#fff"></path>
</svg>