<?xml version="1.0" encoding="UTF-8"?>
<svg width="2500px" height="431px" viewBox="0 0 2500 431" version="1.1" xmlns="http://www.w3.org/2000/svg" xmlns:xlink="http://www.w3.org/1999/xlink">
    <title>instabug</title>
    <g id="Page-1" stroke="none" stroke-width="1" fill="none" fill-rule="evenodd">
        <g id="instabug" transform="translate(0.000000, 0.000000)" fill="#FFFFFF" fill-rule="nonzero">
            <path d="M739.630701,46.1310083 L805.178699,46.1310083 L805.178699,338.231425 L739.630701,338.231425 L739.630701,46.1310083 Z M857.729841,338.231425 L857.729841,121.575407 L918.173049,121.575407 L918.173049,151.609105 C929.604019,131.064677 955.1906,115.656357 986.508324,115.656357 C1008.64178,115.259525 1030.03323,123.635969 1046.012,138.956744 C1062.23458,154.365064 1070.53378,176.882508 1070.53378,205.726133 L1070.53378,338.231425 L1008.61864,338.231425 L1008.61864,221.917396 C1008.61864,190.317812 992.020244,172.560662 966.33971,172.560662 C938.310346,172.560662 919.738935,193.073772 919.738935,223.5146 L919.738935,338.231425 L857.729841,338.231425 Z M1099.47136,304.095106 L1129.88087,263.789194 C1148.45228,282.767735 1168.99671,292.225688 1191.88996,292.225688 C1207.29828,292.225688 1218.35344,285.523695 1218.35344,274.844351 C1218.35344,268.580806 1214.00028,263.413381 1204.91814,259.185489 C1201.78636,257.588285 1193.08004,254.456512 1179.26892,249.790171 C1165.4578,245.12383 1155.93721,241.115162 1151.08297,238.735014 C1125.40243,226.489784 1112.37426,207.13543 1112.37426,181.454896 C1111.81798,162.643779 1120.33558,144.711384 1135.26752,133.256918 C1150.67584,121.011688 1171.22026,114.685507 1196.9008,114.685507 C1228.21852,114.685507 1254.18092,124.581908 1275.19511,144.719205 L1246.44544,184.774575 C1230.25417,171.370589 1213.24865,164.637278 1195.86731,164.637278 C1182.0562,164.637278 1173.34987,170.900823 1173.34987,180.045599 C1173.34987,187.937665 1179.61341,193.888033 1192.70422,198.209879 C1216.03593,205.726133 1233.01013,212.052313 1244.06529,217.971363 C1268.55575,230.999536 1280.80098,249.289088 1280.80098,273.278465 C1280.95547,293.030878 1271.90189,311.72849 1256.31052,323.85659 C1240.11926,337.260576 1218.72925,343.993887 1191.92128,343.993887 C1153.58838,343.993887 1122.77174,330.558583 1099.47136,304.095106 L1099.47136,304.095106 Z M1474.72033,325.704336 C1456.15936,337.542436 1434.03861,343.461485 1408.35807,343.461485 C1356.62119,343.461485 1330.94066,314.242048 1330.94066,256.178987 L1330.94066,172.936475 L1296.5538,172.936475 L1296.5538,121.575407 L1331.31647,121.575407 L1331.31647,44.9409348 L1392.94975,44.9409348 L1392.94975,121.575407 L1462.53774,121.575407 L1462.53774,172.936475 L1393.01239,172.936475 L1393.01239,250.35389 C1393.01239,274.844351 1402.40771,287.089581 1421.85601,287.089581 C1431.71066,287.089581 1443.5592,283.540239 1457.40163,276.441555 L1474.72033,325.704336 Z M1659.18173,121.575407 L1717.65192,121.575407 L1717.65192,338.231425 L1659.18173,338.231425 L1659.18173,316.089794 C1641.7089,334.147107 1617.53591,344.158714 1592.41234,343.743345 C1563.29357,344.419448 1535.32127,332.393759 1515.77787,310.797099 C1495.64057,288.686785 1485.77549,261.440365 1485.77549,228.650707 C1485.77549,195.86105 1496.0477,169.397572 1516.185,148.038884 C1536.3223,126.680196 1562.00283,116.063487 1592.41234,116.063487 C1617.67711,115.732546 1641.91361,126.054656 1659.18173,144.499981 L1659.18173,121.575407 Z M1563.1929,270.522505 C1573.51678,281.488654 1588.0366,287.517688 1603.09169,287.089581 C1618.23588,287.550536 1632.8202,281.345903 1642.99047,270.115374 C1653.52312,259.19623 1659.33879,244.572696 1659.18173,229.402333 C1659.40993,214.33904 1653.57581,199.815812 1642.99047,189.096421 C1632.41562,178.50148 1618.06099,172.547611 1603.09169,172.547611 C1588.12238,172.547611 1573.76775,178.50148 1563.1929,189.096421 C1552.97892,199.996898 1547.44681,214.468086 1547.78458,229.402333 C1547.43886,244.580985 1552.95756,259.308732 1563.1929,270.522505 L1563.1929,270.522505 Z M1966.7531,148.853145 C1987.70466,170.556328 1998.07083,197.426936 1998.07083,229.809463 C1998.07083,262.19199 1987.79861,289.469728 1967.25419,311.235547 C1946.70976,333.001365 1921.02923,343.618074 1890.21258,343.618074 C1865.23352,344.14714 1841.38125,333.235997 1825.44753,313.991507 L1825.44753,338.231425 L1765.41145,338.231425 L1765.41145,37.5812695 L1827.45186,37.5812695 L1827.45186,142.902777 C1843.61156,125.431299 1866.44824,115.670186 1890.2439,116.063487 C1919.26116,115.556453 1947.10837,127.49097 1966.7531,148.853145 Z M1919.36939,189.566187 C1909.24156,178.540803 1894.8095,172.479799 1879.84642,172.967793 C1864.78801,172.555824 1850.27061,178.595244 1839.94764,189.566187 C1829.67786,200.267096 1824.12763,214.639033 1824.53932,229.464968 C1824.12437,244.533732 1829.65979,259.159842 1839.94764,270.17801 C1850.27061,281.148952 1864.78801,287.188373 1879.84642,286.776404 C1894.8095,287.264398 1909.24156,281.203394 1919.36939,270.17801 C1929.65723,259.159842 1935.19265,244.533732 1934.77771,229.464968 C1935.23137,214.64617 1929.72659,200.263808 1919.49466,189.534869 L1919.36939,189.566187 Z M2032.05056,245.217783 L2032.05056,121.575407 L2094.05965,121.575407 L2094.05965,245.624914 C2094.05965,270.522505 2108.68503,286.713769 2133.5513,286.713769 C2158.41758,286.713769 2173.07427,270.522505 2173.07427,245.624914 L2173.07427,121.575407 L2235.08337,121.575407 L2235.08337,245.217783 C2235.08337,308.041139 2196.78179,343.586756 2133.5513,343.586756 C2070.32082,343.586756 2032.05056,307.258196 2032.05056,245.217783 Z M2443.6281,121.575407 L2500,121.575407 L2500,316.747466 C2500,351.478823 2488.53771,379.132374 2465.5505,399.300988 C2442.56329,419.469603 2413.7823,430.117629 2378.64382,430.117629 C2342.3851,430.563572 2306.9662,419.196983 2277.73811,397.735102 L2301.44563,351.917271 C2326.3119,368.891478 2351.55399,377.190675 2376.60817,377.190675 C2417.69702,377.190675 2440.99741,353.514475 2440.99741,321.507761 L2440.99741,313.177246 C2424.80614,330.151453 2403.41614,338.45065 2377.0153,338.45065 C2345.00858,338.45065 2319.32805,328.178436 2299.19075,307.132925 C2279.05345,286.087414 2269.03178,259.937114 2269.03178,227.836446 C2269.03178,195.046789 2279.71113,168.33277 2300.63137,147.255941 C2321.55161,126.179112 2348.0464,115.938216 2379.23885,115.938216 C2403.53265,115.371227 2426.92929,125.123618 2443.6281,142.777506 L2443.6281,121.575407 Z M2386.75511,172.936475 C2371.96545,172.491548 2357.65773,178.221447 2347.26346,188.751926 C2336.66138,199.087391 2330.96602,213.451074 2331.60459,228.243577 C2331.04218,243.263469 2336.70854,257.848682 2347.26346,268.549488 C2357.61924,279.179465 2371.91772,285.041729 2386.75511,284.740752 C2401.42415,285.303226 2415.64226,279.611426 2425.87095,269.08189 C2436.43838,258.223193 2442.09723,243.510178 2441.52981,228.368848 C2441.65508,196.236862 2418.35469,172.936475 2386.75511,172.936475 L2386.75511,172.936475 Z" id="Shape"></path>
            <polygon id="Path" opacity="0.3" points="78.1690406 229.809463 259.561301 0 181.486214 0 0 229.809463"></polygon>
            <polygon id="Path" opacity="0.6" points="157.152342 229.809463 338.513285 0 259.529984 0 78.1690406 229.809463"></polygon>
            <path d="M417.277362,191.351297 L568.322748,0 L338.513285,0 L157.152342,229.809463 L337.949566,229.809463 C368.883449,229.802095 398.111388,215.632373 417.277362,191.351297 Z" id="Path"></path>
            <path d="M473.148183,154.396382 L452.760344,180.202187 L432.403823,206.007992 C410.182356,234.316404 376.161357,250.812834 340.173124,250.729703 L297.518384,250.729703 L192.290829,384.205845 L373.119371,384.205845 C404.053254,384.198478 433.281192,370.028755 452.447167,345.747679 L603.492553,154.396382 L473.148183,154.396382 Z" id="Path"></path>
            <polygon id="Path" opacity="0.6" points="113.338845 384.205845 192.322147 384.205845 297.674972 250.729703 218.691671 250.729703"></polygon>
            <polygon id="Path" opacity="0.3" points="140.616583 250.729703 35.2011224 384.205845 113.338845 384.205845 218.691671 250.729703"></polygon>
        </g>
    </g>
</svg>