<?xml version="1.0" encoding="UTF-8"?>
<svg width="200px" height="89px" viewBox="0 0 200 89" version="1.1" xmlns="http://www.w3.org/2000/svg" xmlns:xlink="http://www.w3.org/1999/xlink">
    <title>tunein</title>
    <g id="Page-1" stroke="none" stroke-width="1" fill="none" fill-rule="evenodd">
        <g id="tunein" transform="translate(0.000000, 0.971008)" fill="#FFFFFF" fill-rule="nonzero">
            <path d="M39,40.8 L39,44.8 C39,45.2 38.6,45.6 38.2,45.6 L33.2,45.6 C33,45.6 32.8,45.8 32.8,46 L32.8,67.2 C32.8,67.6 32.4,68 32,68 L28,68 C27.6,68 27.2,67.6 27.2,67.2 L27.2,46 C27.2,45.8 27,45.6 26.8,45.6 L21.8,45.6 C21.4,45.6 21,45.2 21,44.8 L21,40.8 C21,40.4 21.4,40 21.8,40 L38.2,40 C38.6,40 39,40.4 39,40.8 Z M61,40 L57,40 C56.6,40 56.2,40.4 56.2,40.8 L56.2,59.6 C56.2,61.4 54.8,62.8 52.3,62.8 C49.9,62.8 48.5,61.4 48.5,59.6 L48.5,40.8 C48.5,40.4 48.1,40 47.7,40 L43.7,40 C43.3,40 42.9,40.4 42.9,40.8 L42.9,59.6 C42.9,64.4 46.9,68.4 52.3,68.4 C57.8,68.4 61.8,64.4 61.8,59.6 L61.8,40.8 C61.8,40.4 61.4,40 61,40 Z M83.6,40 L79.6,40 C79.2,40 78.8,40.4 78.8,40.8 L78.8,55.8 C78.8,56 78.5,56.1 78.4,55.9 L72.9,40.7 C72.8,40.3 72.5,40 71.9,40 L67.1,40 C66.7,40 66.3,40.4 66.3,40.8 L66.3,67.2 C66.3,67.6 66.7,68 67.1,68 L71.1,68 C71.5,68 71.9,67.6 71.9,67.2 L71.9,53.4 C71.9,53.2 72.2,53.1 72.3,53.3 L77.7,67.3 C77.8,67.6 78.1,68 78.8,68 L83.5,68 C83.9,68 84.3,67.6 84.3,67.2 L84.3,40.8 C84.4,40.4 84,40 83.6,40 Z M104.3,62.4 L94.8,62.4 C94.6,62.4 94.4,62.2 94.4,62 L94.4,57.2 C94.4,57 94.6,56.8 94.8,56.8 L103.8,56.8 C104.2,56.8 104.6,56.4 104.6,56 L104.6,52 C104.6,51.6 104.2,51.2 103.8,51.2 L94.8,51.2 C94.6,51.2 94.4,51 94.4,50.8 L94.4,46 C94.4,45.8 94.6,45.6 94.8,45.6 L104.1,45.6 C104.5,45.6 104.9,45.2 104.9,44.8 L104.9,40.8 C104.9,40.4 104.5,40 104.1,40 L89.6,40 C89.2,40 88.8,40.4 88.8,40.8 L88.8,67.2 C88.8,67.6 89.2,68 89.6,68 L104.3,68 C104.7,68 105.1,67.6 105.1,67.2 L105.1,63.2 C105.1,62.8 104.7,62.4 104.3,62.4 Z M200,3 L200,65 C200,66.7 198.7,68 197,68 L128,68 L128,85 C128,86.7 126.7,88 125,88 L3,88 C1.3,88 0,86.7 0,85 L0,23 C0,21.3 1.3,20 3,20 L122,20 L122,3 C122,1.3 123.3,0 125,0 L197,0 C198.7,0 200,1.3 200,3 Z M122,26 L6.5,26 C6.2,26 6,26.2 6,26.5 L6,81.5 C6,81.8 6.2,82 6.5,82 L121.5,82 C121.8,82 122,81.8 122,81.5 L122,26 Z M157.8,43.4 C157.8,43 157.4,42.6 157,42.6 L153.6,42.6 C153.4,42.6 153.2,42.4 153.2,42.2 L153.2,25.8 C153.2,25.6 153.4,25.4 153.6,25.4 L156.6,25.4 C157,25.4 157.4,25 157.4,24.6 L157.4,20.8 C157.4,20.4 157,20 156.6,20 L144.2,20 C143.8,20 143.4,20.4 143.4,20.8 L143.4,24.6 C143.4,25 143.8,25.4 144.2,25.4 L147.2,25.4 C147.4,25.4 147.6,25.6 147.6,25.8 L147.6,42.2 C147.6,42.4 147.4,42.6 147.2,42.6 L143.8,42.6 C143.4,42.6 143,43 143,43.4 L143,47.2 C143,47.6 143.4,48 143.8,48 L157,48 C157.4,48 157.8,47.6 157.8,47.2 L157.8,43.4 Z M180.2,20.8 C180.2,20.4 179.8,20 179.4,20 L175.4,20 C175,20 174.6,20.4 174.6,20.8 L174.6,35.8 C174.6,36 174.3,36.1 174.2,35.9 L168.7,20.7 C168.6,20.3 168.3,20 167.7,20 L163,20 C162.6,20 162.2,20.4 162.2,20.8 L162.2,47.2 C162.2,47.6 162.6,48 163,48 L167,48 C167.4,48 167.8,47.6 167.8,47.2 L167.8,33.4 C167.8,33.2 168.1,33.1 168.2,33.3 L173.6,47.3 C173.7,47.6 174,48 174.7,48 L179.4,48 C179.8,48 180.2,47.6 180.2,47.2 L180.2,20.8 L180.2,20.8 Z" id="Shape"></path>
        </g>
    </g>
</svg>