<svg width="157" height="181" viewBox="0 0 157 181" fill="none" xmlns="http://www.w3.org/2000/svg">
  <path d="M78.4667 0C50.9723 0 28.5333 22.7535 28.5333 50.6333V65.1H14.2667C6.38433 65.1 0 71.5738 0 79.5667V166.367C0 174.36 6.38433 180.833 14.2667 180.833H142.667C150.549 180.833 156.933 174.36 156.933 166.367V79.5667C156.933 71.5738 150.549 65.1 142.667 65.1H128.4V50.6333C128.4 23.6646 107.261 1.94262 81.0022 0.522716C80.1954 0.193202 79.3362 0.016058 78.4667 0ZM78.4667 14.4667C98.252 14.4667 114.133 30.5706 114.133 50.6333V65.1H42.8V50.6333C42.8 30.5706 58.6813 14.4667 78.4667 14.4667Z" fill="#6F62AF"/>
  <path fill-rule="evenodd" clip-rule="evenodd" d="M58.3214 136.695H97.5028L103.625 117.361C103.943 117.478 104.284 117.539 104.636 117.539C106.491 117.539 108 115.825 108 113.704C108 111.588 106.496 109.868 104.636 109.868C102.781 109.868 101.272 111.583 101.272 113.704C101.272 114.539 101.506 115.307 101.902 115.936L98.4256 119.198C93.5578 123.763 90.5063 121.648 91.4584 114.556L91.9954 110.564C92.181 110.603 92.3763 110.62 92.5716 110.62C94.4269 110.62 95.9356 108.905 95.9356 106.784C95.9356 104.669 94.4318 102.949 92.5716 102.949C90.7163 102.949 89.2076 104.663 89.2076 106.784C89.2076 107.992 89.7007 109.072 90.4672 109.774L89.6324 111.277C85.5409 118.28 82.5236 115.597 81.3176 108.677L79.1645 97.3706C80.3704 96.786 81.22 95.4277 81.22 93.8356C81.22 91.7202 79.7162 90 77.856 90C76.0007 90 74.492 91.7146 74.492 93.8356C74.492 95.6059 75.5417 97.0922 76.9674 97.5376L75.571 103.984C74.3602 109.891 72.9101 121.659 66.353 111.627L65.2837 109.968C66.1284 109.273 66.6801 108.137 66.6801 106.857C66.6801 104.741 65.1763 103.021 63.3161 103.021C61.4608 103.021 59.9522 104.736 59.9522 106.857C59.9522 108.972 61.4559 110.692 63.3161 110.692C63.5749 110.692 63.8288 110.659 64.0729 110.592L64.2975 113.197C64.7369 116.755 65.2984 121.57 61.7147 121.342C59.9375 121.23 59.2686 120.54 57.9113 119.438L54.0347 116.304C54.4692 115.658 54.728 114.851 54.728 113.971C54.728 111.856 53.2242 110.135 51.364 110.135C49.5087 110.135 48 111.85 48 113.971C48 116.092 49.5038 117.807 51.364 117.807C51.8034 117.807 52.2184 117.712 52.6041 117.539L58.3214 136.695ZM58.2921 142.045H97.6005V150H58.2921V142.045Z" fill="white"/>
  </svg>
  