<svg width="167" height="266" viewBox="0 0 167 266" fill="none" xmlns="http://www.w3.org/2000/svg">
    <path d="M47.602 103.283L110.444 116.918L14.8389 234.053L34.5989 247.751L156.27 103.283L82.2295 86.2139L116.999 12.8501L99.9707 2.58594L47.602 103.283Z" fill="white"/>
    <mask id="mask0_23_5" style="mask-type:luminance" maskUnits="userSpaceOnUse" x="14" y="2" width="143" height="246">
    <path d="M47.602 103.283L110.444 116.918L14.8389 234.053L34.5989 247.751L156.27 103.283L82.2295 86.2139L116.999 12.8501L99.9707 2.58594L47.602 103.283Z" fill="white"/>
    </mask>
    <g mask="url(#mask0_23_5)">
    <path d="M226 -25H-59V278H226V-25Z" fill="white"/>
    </g>
    <path d="M110.31 74.5532L147.25 81.9122C165.378 85.5239 172.885 108.768 160.666 123.457L49.7078 256.852C31.5888 278.635 -1.10486 255.956 10.3499 229.55L46.8855 145.328L19.7343 139.898C3.63168 136.677 -4.6389 117.498 3.57507 102.425L52.3934 12.842C56.6406 5.04821 64.4713 0.25 72.9435 0.25H109.566C127.858 0.25 139.283 21.3113 130.123 38.1446L110.31 74.5532ZM109.566 25.5H72.9435L24.1252 115.083L81.2074 126.5L31.9167 240.125L142.875 106.73L72.9435 92.7984L109.566 25.5Z" fill="white"/>
    <mask id="mask1_23_5" style="mask-type:luminance" maskUnits="userSpaceOnUse" x="0" y="0" width="167" height="266">
    <path d="M110.31 74.5532L147.25 81.9122C165.378 85.5239 172.885 108.768 160.666 123.457L49.7078 256.852C31.5888 278.635 -1.10486 255.956 10.3499 229.55L46.8855 145.328L19.7343 139.898C3.63168 136.677 -4.6389 117.498 3.57507 102.425L52.3934 12.842C56.6406 5.04821 64.4713 0.25 72.9435 0.25H109.566C127.858 0.25 139.283 21.3113 130.123 38.1446L110.31 74.5532ZM109.566 25.5H72.9435L24.1252 115.083L81.2074 126.5L31.9167 240.125L142.875 106.73L72.9435 92.7984L109.566 25.5Z" fill="white"/>
    </mask>
    <g mask="url(#mask1_23_5)">
    <path d="M226 -25H-59V278H226V-25Z" fill="white"/>
    </g>
    </svg>
    